<?xml version="1.0" encoding="utf-8"?>
<!-- Generator: Adobe Illustrator 24.1.0, SVG Export Plug-In . SVG Version: 6.00 Build 0)  -->
<svg version="1.1" id="Layer_1" xmlns="http://www.w3.org/2000/svg" xmlns:xlink="http://www.w3.org/1999/xlink" x="0px" y="0px"
	 viewBox="0 0 1280 1024" style="enable-background:new 0 0 1280 1024;" xml:space="preserve">
<style type="text/css">
	.st0{fill:#1A612C;stroke:#1A612C;stroke-width:32;stroke-miterlimit:10;stroke-dasharray:0,0,0,0,0,0;}
</style>
<g id="Layer_4">
	<path class="st0" d="M501,179.9v662c0,12,9.5,21.7,21.5,22.1l1.2,0c12.4,0.3,22.6-9.5,22.7-21.9l2.2-276.7
		c0.1-12.1,9.9-21.9,22-21.9l140.3-0.5c12.1,0,22,9.7,22.2,21.9l2.8,280.1c0.1,12.2,10.2,22,22.4,21.9l0,0
		c12.1-0.2,21.8-10,21.8-22.1V517.3c0-12.2-9.9-22.1-22.2-22.1l-186.4,0.5c-12.2,0-22.1-9.8-22.2-22l-0.6-293.8
		c0-12.1-9.7-21.9-21.8-22l-3.6,0C511,157.7,501,167.6,501,179.9z"/>
</g>
</svg>
